<svg xmlns="http://www.w3.org/2000/svg" viewBox="0 0 511.7 512"><title>favicon</title><path d="M387,657c-8.19-1-16.41-1.82-24.56-3a251.79,251.79,0,0,1-115.66-48.79A254.32,254.32,0,0,1,173,517.33a249.3,249.3,0,0,1-26-85.69Q137.7,352,174.88,281.2A252.26,252.26,0,0,1,238.93,203c33.76-27.77,72.33-45.41,115.16-53.69,8.94-1.73,18.11-2.26,27.17-3.38,1.59-.2,3.16-.62,4.74-.94h30c7.68,1,15.39,1.85,23.05,3a250,250,0,0,1,109.35,43.9,254.65,254.65,0,0,1,77.1,86.28A244.43,244.43,0,0,1,653,356.63c11.49,70.17-2.58,134.7-43.74,192.84-29.28,41.35-67.79,71.2-115,89.8a243.94,243.94,0,0,1-74.47,16.81A21,21,0,0,0,416,657Zm-41-93.09c-13.35,2.73-26.05,3.93-38.78,1-17.61-4-30.61-13.62-37.58-30.83-5.38-13.31-12.87-25.15-25.58-32.89a24.88,24.88,0,0,1-6.36-5.51c-2.57-3.18-1.66-5.76,2.27-6.51a29.18,29.18,0,0,1,9.36-.4c15.07,2.18,24.86,11.69,32.41,24.08,4.13,6.78,9.25,12.61,16.17,16.61,15.53,9,31.28,6.69,47,.64a3.26,3.26,0,0,0,1.82-2.08A53,53,0,0,1,359.9,499.7c-10.65-2.29-21.15-4-31.36-6.82-24.44-6.67-44.71-19.34-57.21-42.24-7.76-14.23-11.07-29.69-12.66-45.73-2.69-27.05,1.73-52,19.82-73.35a6.61,6.61,0,0,0,1.15-5.33c-4.8-15.45-3.88-30.81.4-46.13,3.12-11.17,4.44-11.87,15.87-9.6,16.42,3.27,30.86,11.06,44.73,20,3,1.93,5.49,1.91,8.72,1.36,14-2.43,28.05-5.36,42.2-6.61,21.39-1.88,42.42,1.56,63.19,6.7,1.89.46,4.43-.26,6.25-1.22,7.32-3.89,14.31-8.45,21.75-12.08,10.16-5,20.67-9.28,32.35-8.6,1.55.09,3.91,1.37,4.38,2.64,6.13,16.92,8.36,34.23,3.29,51.8-1.09,3.8-.34,6.12,2,8.89a81.65,81.65,0,0,1,16.31,32.1c4.48,17,3.52,34,.82,51-3.47,21.88-11.88,41.39-29.09,56.32-13.55,11.76-29.65,18-46.77,22.08-7.92,1.87-16,3-24.39,4.58,10.61,10.75,14.12,23.73,14.28,37.72.26,21.49,0,43,.09,64.49,0,9.15,7.08,14.34,15.84,11.82,1.11-.32,2.2-.74,3.29-1.13a222.21,222.21,0,0,0,75.64-45.12c34.42-31.11,57.09-69.35,68-114.32a222.51,222.51,0,0,0,2.41-93A223.57,223.57,0,0,0,489.21,194.8c-46.69-19.87-94.81-23.45-143.85-11-49.32,12.54-89.63,39.41-121,79.44-26.61,33.93-41.66,72.65-46.19,115.4a217.13,217.13,0,0,0,1.69,56.69A224,224,0,0,0,329.13,613.17c8.19,2.78,16.56-2,16.78-9.75C346.27,590.45,346,577.46,346,563.91Z" transform="translate(-145.12 -145)" style="fill:#fff"/></svg>